<svg width="140" height="140" viewBox="0 0 140 140" fill="none" xmlns="http://www.w3.org/2000/svg">
<g filter="url(#filter0_d)">
<path d="M70 112C56.6463 112 44.0854 106.797 34.6545 97.3455C25.2033 87.9146 20 75.3537 20 62C20 48.6463 25.2033 36.0854 34.6545 26.6545C44.0854 17.2033 56.6463 12 70 12C83.3537 12 95.9146 17.2033 105.346 26.6545C114.797 36.0854 120 48.6463 120 62C120 71.8577 117.073 81.4715 111.524 89.7642C111.138 90.3333 110.508 90.6585 109.837 90.6585C109.431 90.6585 109.045 90.5366 108.72 90.313C107.785 89.6829 107.541 88.4228 108.15 87.4878C113.252 79.8862 115.935 71.065 115.935 62C115.935 36.6748 95.3252 16.065 70 16.065C44.6748 16.065 24.065 36.6748 24.065 62C24.065 87.3252 44.6748 107.935 70 107.935C78.3943 107.935 86.626 105.638 93.7602 101.309C94.0854 101.126 94.4309 101.024 94.8171 101.024C95.5285 101.024 96.1789 101.39 96.565 102C97.1545 102.955 96.8293 104.215 95.874 104.785C88.0894 109.5 79.1463 112 70 112Z" fill="#5673CE"/>
<path d="M61.0768 82.4675C59.8573 82.4675 58.6174 82.1423 57.5199 81.5122C55.2841 80.2317 53.9426 77.8943 53.9426 75.313V48.687C53.9426 46.0854 55.2841 43.7683 57.5199 42.4878C58.6174 41.8577 59.8369 41.5325 61.0768 41.5325C62.3166 41.5325 63.5361 41.8781 64.654 42.5081L87.5808 55.8212C89.8166 57.122 91.1377 59.4187 91.1377 62C91.1377 64.5813 89.8166 66.8984 87.5808 68.1789L64.654 81.4919C63.5361 82.1423 62.3166 82.4675 61.0768 82.4675ZM61.0768 45.5976C60.5483 45.5976 60.0199 45.7398 59.5524 46.0041C58.5768 46.5529 58.0077 47.5691 58.0077 48.687V75.313C58.0077 76.4512 58.5768 77.4268 59.5524 77.9959C60.0199 78.2602 60.5483 78.4025 61.0768 78.4025C61.6052 78.4025 62.1337 78.2602 62.6012 77.9756L85.528 64.6626C86.5036 64.0935 87.0524 63.1179 87.0524 62C87.0524 60.8618 86.4833 59.8862 85.528 59.3374L62.6012 46.0244C62.1134 45.7398 61.6052 45.5976 61.0768 45.5976Z" fill="#5673CE"/>
</g>
<defs>
<filter id="filter0_d" x="0" y="0" width="140" height="140" filterUnits="userSpaceOnUse" color-interpolation-filters="sRGB">
<feFlood flood-opacity="0" result="BackgroundImageFix"/>
<feColorMatrix in="SourceAlpha" type="matrix" values="0 0 0 0 0 0 0 0 0 0 0 0 0 0 0 0 0 0 127 0"/>
<feOffset dy="8"/>
<feGaussianBlur stdDeviation="10"/>
<feColorMatrix type="matrix" values="0 0 0 0 0.360784 0 0 0 0 0.658824 0 0 0 0 1 0 0 0 0.3 0"/>
<feBlend mode="normal" in2="BackgroundImageFix" result="effect1_dropShadow"/>
<feBlend mode="normal" in="SourceGraphic" in2="effect1_dropShadow" result="shape"/>
</filter>
</defs>
</svg>
