<svg width="204" height="26" viewBox="0 0 204 26" fill="none" xmlns="http://www.w3.org/2000/svg">
<path d="M184.51 0H204L200.037 3.848H196.477V24.7H191.968V3.848H188.473L184.51 0Z" fill="#05000A"/>
<path d="M0 0H16.6708L12.9027 3.809H4.20994V10.14H16.372L12.5518 13.975H4.23592V20.891H13.0716L16.8917 24.7H0V0Z" fill="#05000A"/>
<path d="M28.586 0H33.7445L41.5926 19.994L49.4148 0H54.5733L44.3213 24.7H38.773L28.586 0Z" fill="#05000A"/>
<path d="M64.9941 0H81.6779L77.8968 3.809H69.2171V10.14H81.3661L77.546 13.975H69.256V20.891H78.0917L81.8599 24.7H64.9681L64.9941 0Z" fill="#05000A"/>
<path d="M94.8535 3.77L98.8556 0H102.13C105.041 0 110.251 1.768 110.212 7.618C110.29 9.40164 109.693 11.1491 108.539 12.511C107.385 13.8728 105.76 14.7485 103.988 14.963L110.446 24.7H105.248L99.3363 15.47H94.9185L98.9465 11.648H101.545C102.091 11.648 105.599 11.31 105.599 7.683C105.599 4.056 101.857 3.744 101.077 3.783L94.8535 3.77Z" fill="#05000A"/>
<path d="M124.739 0H141.449L137.668 3.809H128.988V10.14H141.111L137.291 13.975H129.014V20.891H137.849L141.631 24.7H124.739V0Z" fill="#05000A"/>
<path d="M169.827 6.695L172.231 3.471C172.231 3.471 169.502 0 163.239 0C156.989 0 154.221 3.731 154.221 7.423C154.221 11.115 156.56 13.325 162.472 14.755C168.384 16.185 168.501 17.264 168.54 18.733C168.566 20.397 166.994 22.087 163.083 22.087C159.185 22.087 155.729 18.538 155.729 18.538L153.325 21.918C153.325 21.918 156.443 26 163.46 26C170.476 26 172.815 21.853 172.815 18.135C172.815 14.404 170.567 12.077 164.928 10.647C159.302 9.217 158.522 8.606 158.522 6.786C158.522 4.966 160.627 3.861 163.018 3.861C166.968 3.861 169.827 6.695 169.827 6.695V6.695Z" fill="#05000A"/>
</svg>
