<svg width="47" height="30" viewBox="0 0 47 30" fill="none" xmlns="http://www.w3.org/2000/svg">
<path d="M12.4794 13C11.6184 13 10.9584 13.2728 10.9584 13.2728L10.7761 14.3401C10.7761 14.3401 11.3205 14.1218 12.1449 14.1218C12.6128 14.1218 12.9546 14.1732 12.9546 14.5479C12.9546 14.7758 12.9131 14.8601 12.9131 14.8601C12.9131 14.8601 12.5445 14.8304 12.3736 14.8304C11.2871 14.8304 10.1462 15.2861 10.1462 16.6655C10.1462 17.752 10.8941 18 11.3588 18C12.245 18 12.6275 17.4335 12.647 17.4319L12.6055 17.9053H13.7115L14.2046 14.4949C14.2038 13.0465 12.9237 13 12.4794 13ZM11.8592 16.9624C11.4694 16.9624 11.3677 16.6696 11.3677 16.4946C11.3677 16.156 11.5541 15.7484 12.4745 15.7484C12.6893 15.7492 12.7121 15.7708 12.7479 15.7772C12.7723 15.9859 12.6161 16.9624 11.8592 16.9624Z" fill="#C9C9C9"/>
<path d="M16.3695 14.1422C16.5222 14.1422 17.1113 14.198 17.1113 14.198L17.2485 13.0977C17.2485 13.0977 16.8671 13 16.2463 13C15.4426 13 14.6276 13.3684 14.6276 14.6277C14.6276 16.0559 15.9873 15.9105 15.9873 16.5132C15.9873 16.9138 15.6073 16.947 15.3145 16.947C14.8071 16.947 14.351 16.7482 14.3496 16.7563L14.2047 17.8477C14.2307 17.8557 14.5122 17.9995 15.4236 17.9995C15.6678 17.9995 17.0662 18.0722 17.0662 16.4154C17.0662 14.866 15.772 15.1722 15.772 14.5494C15.772 14.2392 15.9824 14.1422 16.3695 14.1422Z" fill="#C9C9C9"/>
<path d="M19.286 14.0171H20.0968L20.2924 12.7719H19.5282L19.684 12H18.1526C18.1189 12.0283 17.2485 16.3533 17.2485 16.8782C17.2485 17.6594 17.7556 18.0059 18.4692 17.9999C19.028 17.9965 19.4637 17.8627 19.6175 17.8258L19.809 16.7006C19.7038 16.7006 19.55 16.7401 19.414 16.7401C18.8811 16.7401 18.8225 16.4939 18.8563 16.313L19.286 14.0171Z" fill="#C9C9C9"/>
<path d="M24.4353 7H22.1603C21.8547 7.64433 21.5672 8.3299 21.307 9H25.3654C25.0838 8.30155 24.7723 7.63402 24.4353 7Z" fill="#C9C9C9"/>
<path d="M42.4656 21.8024C42.3938 21.7134 42.3339 21.6462 42.2861 21.6047C42.2598 21.585 42.2263 21.5632 42.1832 21.5534C42.2861 21.5474 42.3722 21.5158 42.4344 21.4624C42.4943 21.4091 42.5278 21.3458 42.5278 21.2727C42.5278 21.2213 42.5086 21.1719 42.4727 21.1265C42.4368 21.081 42.3842 21.0474 42.3196 21.0296C42.2598 21.0099 42.1569 21 42.0157 21H41.5993V21.998H41.7955V21.5751H41.908C41.975 21.5751 42.03 21.587 42.0611 21.6107C42.1114 21.6443 42.1832 21.7213 42.2669 21.8419L42.3722 22H42.6139L42.4656 21.8024ZM42.03 21.4427H41.7907V21.1423H42.0157C42.109 21.1423 42.1712 21.1482 42.2071 21.1601C42.2454 21.1719 42.2693 21.1897 42.2909 21.2115C42.31 21.2352 42.3196 21.2609 42.3196 21.2885C42.3196 21.334 42.3004 21.3735 42.2598 21.4012C42.2191 21.4269 42.1401 21.4427 42.03 21.4427Z" fill="#C9C9C9"/>
<path d="M25.9045 10H20.8856C20.5651 10.5145 20.3524 10.9034 20.2924 11H26.3801C26.2426 10.6561 26.0846 10.3232 25.9045 10Z" fill="#C9C9C9"/>
<path d="M8.1703 12L6.94063 15.6821L6.87676 12H5.05611L4.05847 18H5.26227L6.02141 13.4769L6.13298 18H6.99237L8.59555 13.4769L7.88491 18H9.16228L10.1462 12H8.1703Z" fill="#C9C9C9"/>
<path d="M32.7738 13C31.911 13 31.2517 13.2728 31.2517 13.2728L31.0685 14.3401C31.0685 14.3401 31.6139 14.1218 32.4376 14.1218C32.9057 14.1218 33.2483 14.1732 33.2483 14.5479C33.2483 14.7758 33.2052 14.8601 33.2052 14.8601C33.2052 14.8601 32.8373 14.8304 32.6647 14.8304C31.5789 14.8304 30.4385 15.2861 30.4385 16.6655C30.4385 17.752 31.1874 18 31.6513 18C32.5369 18 32.9195 17.4335 32.9398 17.4319L32.8983 17.9053H34.0037L34.497 14.4949C34.4994 13.0465 33.2182 13 32.7738 13ZM32.1552 16.9624C31.7645 16.9624 31.6635 16.6696 31.6635 16.4946C31.6635 16.156 31.8499 15.7484 32.7705 15.7484C32.9846 15.7492 33.0074 15.7708 33.044 15.7772C33.0676 15.9859 32.9105 16.9624 32.1552 16.9624Z" fill="#C9C9C9"/>
<path d="M42.5467 17.2505C42.5023 17.1695 42.4372 17.1077 42.3559 17.065C42.2757 17.0213 42.1933 17 42.1066 17C42.0231 17.0011 41.9397 17.0224 41.8573 17.065C41.776 17.1077 41.7131 17.1695 41.6676 17.2505C41.6221 17.3305 41.5993 17.4136 41.5993 17.5C41.5993 17.5864 41.6221 17.6684 41.6676 17.7473C41.712 17.8262 41.7749 17.8891 41.8551 17.9339C41.9364 17.9776 42.0199 18 42.1066 18C42.1955 18 42.2801 17.9776 42.3592 17.9339C42.4394 17.8891 42.5023 17.8262 42.5467 17.7473C42.5933 17.6684 42.6139 17.5864 42.6139 17.5C42.6139 17.4115 42.5922 17.3284 42.5467 17.2505ZM42.4763 17.7058C42.4394 17.7719 42.3874 17.822 42.3191 17.8614C42.2519 17.8977 42.1825 17.9168 42.1099 17.9168C42.0362 17.9168 41.9657 17.8977 41.8996 17.8614C41.8313 17.8241 41.7803 17.7729 41.7413 17.7058C41.7023 17.6386 41.6849 17.5704 41.6849 17.4989C41.6849 17.4275 41.7034 17.3582 41.7435 17.291C41.7814 17.2249 41.8324 17.1738 41.9017 17.1365C41.9711 17.0991 42.0394 17.0832 42.1099 17.0832C42.1803 17.0832 42.2497 17.1002 42.3158 17.1365C42.3852 17.1738 42.4361 17.2239 42.4741 17.291C42.512 17.3582 42.5326 17.4275 42.5326 17.4989C42.5326 17.5704 42.5142 17.6397 42.4763 17.7058Z" fill="#C9C9C9"/>
<path d="M42.4659 17.804C42.3967 17.7109 42.3346 17.6455 42.2892 17.6059C42.2606 17.5842 42.2296 17.5663 42.1866 17.5545C42.2892 17.5485 42.3728 17.5168 42.4349 17.4634C42.4946 17.4119 42.5304 17.3446 42.5304 17.2733C42.5304 17.2238 42.5113 17.1723 42.4731 17.1267C42.4349 17.0832 42.3847 17.0495 42.3251 17.0297C42.2654 17.0099 42.1603 17 42.0195 17H41.5993V17.998H41.7951V17.5743H41.9073C41.9765 17.5743 42.0314 17.5861 42.0648 17.6079C42.115 17.6436 42.1818 17.7188 42.2701 17.8436L42.3728 18H42.6139L42.4659 17.804ZM42.0362 17.4376H41.7998V17.1347H42.0195C42.115 17.1347 42.177 17.1406 42.2152 17.1505C42.2463 17.1644 42.2749 17.1782 42.294 17.204C42.3155 17.2297 42.3251 17.2515 42.3251 17.2851C42.3251 17.3287 42.3036 17.3663 42.2678 17.3941C42.2224 17.4277 42.1484 17.4376 42.0362 17.4376Z" fill="#C9C9C9"/>
<path d="M37.3007 13C36.7419 13 36.327 13.7783 36.327 13.7783L36.4386 13.0627H35.2757L34.497 18H35.7779C36.1426 15.8904 36.2089 14.1794 37.075 14.4922C37.2279 13.6768 37.3751 13.3607 37.5408 13.0165C37.5408 13.0173 37.4632 13 37.3007 13Z" fill="#C9C9C9"/>
<path d="M40.5459 12.0024L40.3193 13.6693C40.3193 13.6693 39.9246 13.0211 39.3054 13.0211C38.3425 13.0219 37.5408 14.3982 37.5408 15.9787C37.5408 16.9999 37.9689 18 38.8426 18C39.4721 18 39.8205 17.4793 39.8205 17.4793L39.7749 17.9241H40.7963L41.5993 12L40.5459 12.0024ZM39.2142 16.7892C38.8358 16.7892 38.6589 16.413 38.6589 15.8221C38.6589 14.8559 39.0243 14.219 39.4864 14.219C39.8634 14.2198 40.0573 14.5274 40.0573 15.2523C40.0573 15.9101 39.7831 16.7892 39.2142 16.7892Z" fill="#C9C9C9"/>
<path d="M45.4709 0H1.20152C0.537129 0 0 0.533562 0 1.19171V28.8083C0 29.4664 0.537129 30 1.20152 30H45.4709C46.1353 30 46.6724 29.4664 46.6724 28.8083V1.19171C46.6724 0.533562 46.1353 0 45.4709 0ZM42.482 21.7843C42.4473 21.8466 42.4002 21.8941 42.339 21.9277C42.2779 21.9613 42.2134 21.9785 42.1473 21.9785C42.0795 21.9785 42.0151 21.9613 41.9539 21.9277C41.8936 21.8941 41.8457 21.8466 41.8101 21.7843C41.7763 21.7245 41.7589 21.6605 41.7589 21.5941C41.7589 21.5277 41.7763 21.4646 41.811 21.4023C41.8448 21.3401 41.8944 21.2933 41.9556 21.2597C42.0176 21.2278 42.0804 21.2106 42.1465 21.2106C42.2117 21.2106 42.2745 21.2278 42.3357 21.2597C42.3977 21.2933 42.4464 21.3401 42.4803 21.4023C42.515 21.4646 42.5315 21.5286 42.5315 21.5941C42.5315 21.6597 42.5167 21.7261 42.482 21.7843ZM43.348 15.0004C43.3496 21.5613 37.9899 26.8822 31.3741 26.8839C28.2803 26.8847 25.4591 25.7217 23.3337 23.8112C21.2083 25.7184 18.393 26.8806 15.3041 26.8806C8.6924 26.8806 3.32607 21.5589 3.32607 15.0004C3.32607 8.46816 8.65026 3.16204 15.2272 3.11942C15.2528 3.11942 15.2784 3.11942 15.3041 3.11942C18.393 3.11942 21.2092 4.28162 23.3345 6.18884C25.4591 4.2808 28.277 3.11778 31.3683 3.11696C37.9841 3.1145 43.348 8.43291 43.3496 14.9947C43.348 14.9963 43.348 14.9971 43.348 15.0004Z" fill="#C9C9C9"/>
<path d="M22.3216 22C22.6328 22.7096 22.9623 23.3864 23.3264 24C23.3345 23.9861 23.3433 23.9735 23.3515 23.9609C23.3515 23.9609 23.3508 23.9609 23.3508 23.9596H23.3528C23.7108 23.3523 24.0451 22.6982 24.3508 22H22.3216Z" fill="#C9C9C9"/>
<path d="M24.1827 15.9256C24.1827 15.9256 24.3508 15.1271 24.3508 14.8021C24.3508 13.9901 23.9318 13 22.529 13C21.2438 13.0008 20.2924 14.3358 20.2924 15.8449C20.2924 17.5864 21.484 18 22.5 18C23.4374 18 23.8498 17.7972 23.8498 17.7972L24.0751 16.6091C24.0751 16.6091 23.3621 16.9125 22.7178 16.9125C21.3457 16.9125 21.5858 15.9256 21.5858 15.9256H24.1827ZM22.5332 14.1059C23.2544 14.1059 23.1211 14.8876 23.1211 14.9499H21.7026C21.7026 14.8692 21.8367 14.1059 22.5332 14.1059Z" fill="#C9C9C9"/>
<path d="M29.842 13.2337C30.6002 13.2337 31.2097 13.5799 31.2097 13.5799L31.4532 12.2967C31.4532 12.2967 30.551 12 29.7744 12C28.054 12 26.3801 13.2133 26.3801 15.4917C26.3801 17.0025 27.2832 18 29.0625 18C29.5648 18 30.3665 17.8344 30.3665 17.8344L30.6331 16.5128C30.6331 16.5128 29.9028 16.8102 29.4005 16.8102C28.3419 16.8094 27.9178 16.1533 27.9178 15.4501C27.9178 14.0194 28.8277 13.2337 29.842 13.2337Z" fill="#C9C9C9"/>
<path d="M20.2924 20C20.5157 20.3473 20.7754 20.6778 21.0539 21H25.6292C25.9068 20.6791 26.1568 20.3454 26.3801 20H20.2924Z" fill="#C9C9C9"/>
<path d="M27.1536 13.0001C26.5945 13.0001 26.1802 13.7784 26.1802 13.7784L26.2927 13.0628H25.13L24.3508 18H25.6325C25.9957 15.8913 26.0637 14.1795 26.9303 14.4923C27.0824 13.6761 27.2288 13.36 27.3947 13.015C27.3947 13.015 27.317 12.9985 27.1536 13.0001Z" fill="#C9C9C9"/>
</svg>
