<svg width="48" height="30" viewBox="0 0 48 30" fill="none" xmlns="http://www.w3.org/2000/svg">
<path d="M45.9618 0H1.69248C1.0281 0 0.490967 0.533562 0.490967 1.19171V28.8083C0.490967 29.4664 1.0281 30 1.69248 30H45.9618C46.6262 30 47.1634 29.4664 47.1634 28.8083V1.19171C47.1634 0.533562 46.6262 0 45.9618 0ZM4.10461 9.06565H9.08586C9.75769 9.09106 10.2989 9.30334 10.4857 10.0156L11.5691 15.1832C10.5047 12.4801 7.93971 10.2311 4.06329 9.30006L4.10461 9.06565ZM10.132 20.8516L7.25466 11.1015C9.32302 12.4146 11.0848 14.498 11.7054 15.9479L12.0409 17.1519L15.1876 9.17794H18.5922L13.5325 20.8491L10.132 20.8516ZM21.0944 20.8598H17.8816L19.8904 9.16564H23.1049L21.0944 20.8598ZM26.6855 21.0352C25.2452 21.0204 23.8577 20.7376 23.1058 20.4106L23.5578 17.7936L23.9718 17.9797C25.027 18.4165 25.7104 18.5936 26.9971 18.5936C27.9201 18.5936 28.9092 18.2354 28.9183 17.4518C28.9241 16.9396 28.5043 16.5741 27.2532 16.0003C26.0335 15.4414 24.4188 14.5037 24.4387 12.8244C24.456 10.5516 26.6938 8.96566 29.8695 8.96566C31.1139 8.96566 32.1114 9.21974 32.7476 9.4566L32.3138 11.9916L32.0238 11.8564C31.4321 11.6204 30.671 11.3925 29.6191 11.4089C28.3614 11.4089 27.778 11.9285 27.778 12.4146C27.7713 12.9621 28.4589 13.3227 29.5827 13.8653C31.4362 14.6996 32.2931 15.7118 32.2816 17.042C32.2568 19.4681 30.0645 21.0352 26.6855 21.0352ZM40.6096 20.8647C40.6096 20.8647 40.3162 19.5205 40.2187 19.1124C39.751 19.1124 36.472 19.1075 36.1035 19.1075C35.9787 19.423 35.4283 20.8647 35.4283 20.8647H32.0543L36.8249 10.1483C37.1637 9.38693 37.738 9.17794 38.5081 9.17794H40.9905L43.591 20.8639L40.6096 20.8647Z" fill="#C9C9C9"/>
<path d="M39.2117 13.1495L38.9647 12C38.7781 12.5019 38.4567 13.3084 38.4774 13.2729C38.4774 13.2729 37.3189 16.2327 37.0172 17H40.0611C39.914 16.3318 39.2117 13.1495 39.2117 13.1495Z" fill="#C9C9C9"/>
</svg>
