<svg width="48" height="30" viewBox="0 0 48 30" fill="none" xmlns="http://www.w3.org/2000/svg">
<path d="M10.8708 12.1873C10.696 12.063 10.4358 12 10.0939 12L9.80166 12.0017C9.61012 12 9.41401 12.1674 9.37662 12.3697L9.10725 13.6295C9.06528 13.8334 9.18508 14 9.37891 14H9.59715C10.0817 14 10.4572 13.8931 10.7265 13.6776C10.9959 13.4637 11.134 13.1596 11.1279 12.7659C11.1294 12.5056 11.0432 12.3108 10.8708 12.1873Z" fill="#C9C9C9"/>
<path d="M16.1323 15C16.0736 15.0011 15.6235 15.0356 15.3955 15.0545C15.1402 15.0791 14.919 15.1135 14.7395 15.1542L14.3175 15.3481C14.2188 15.4318 14.172 15.5384 14.172 15.6755L14.3643 15.9266C14.4945 15.9759 14.6868 16 14.9318 16C15.0934 16 15.2687 15.9736 15.4525 15.9232L15.8439 15.7873L15.9987 15.6485C16.06 15.4868 16.1868 15.1273 16.2012 15.0826L16.1323 15Z" fill="#C9C9C9"/>
<path d="M46.4528 0H2.18345C1.51906 0 0.981934 0.533562 0.981934 1.19171V28.8075C0.981934 29.4656 1.51906 30 2.18345 30H46.4528C47.1172 30 47.6543 29.4664 47.6543 28.8083V1.19171C47.6543 0.533562 47.1172 0 46.4528 0ZM12.1245 14.5529C11.4667 15.0332 10.5511 15.2725 9.36776 15.2742H9.09176C8.87939 15.2742 8.67197 15.4397 8.62817 15.6381L8.29598 17.0625C8.24888 17.2658 8.04146 17.4281 7.83157 17.4281H6.86474C6.65484 17.4281 6.52345 17.2609 6.57304 17.0625L7.93239 11.1917C7.98197 10.9901 8.18773 10.8286 8.39762 10.8253L10.4172 10.8245C10.8535 10.8286 11.2312 10.8548 11.5584 10.9139C11.8807 10.9745 12.1617 11.0761 12.3996 11.2204C12.6277 11.363 12.812 11.554 12.9277 11.7851C13.0566 12.0162 13.1136 12.3055 13.1136 12.6498C13.1136 13.4366 12.7872 14.0726 12.1245 14.5529ZM18.1254 13.8038L18.0891 14.0505L17.3834 17.0765C17.3421 17.2584 17.1603 17.4133 16.9677 17.4355L16.9545 17.4404H16.8149H16.0728H16.0554L16.0521 17.4371C15.8679 17.4199 15.7538 17.265 15.7935 17.0781V17.0765L15.7951 17.0707L15.8315 16.9166L15.8265 16.9109L15.4621 17.1494L15.0655 17.3691L14.5977 17.5281C14.454 17.5625 14.2515 17.583 13.9904 17.583C13.578 17.583 13.2326 17.4707 12.9715 17.2388C12.712 17.0019 12.5781 16.6995 12.5781 16.329C12.5781 15.9356 12.6699 15.6028 12.8541 15.3258C13.045 15.0504 13.3177 14.8357 13.6863 14.675C14.0292 14.5201 14.4416 14.4054 14.9126 14.3406C15.3935 14.2718 15.7902 14.2218 16.3397 14.1874L16.4785 14.1021L16.4959 13.9669C16.4959 13.7587 16.3984 13.6153 16.2042 13.5309C16.0075 13.4489 15.7117 13.4079 15.3249 13.4079C15.0622 13.4046 14.7316 13.4579 14.4184 13.5284C14.0904 13.6022 14.0003 13.6505 13.84 13.6981C13.7656 13.7235 13.5863 13.7358 13.6532 13.4276L13.7714 12.9448C13.7714 12.9448 13.8292 12.5801 14.197 12.5006C14.3746 12.4613 14.4027 12.4539 14.6928 12.4096C15.0853 12.3498 15.4737 12.3195 15.8629 12.3195C16.6504 12.3195 17.2272 12.4211 17.5916 12.6252C17.9577 12.8285 18.1445 13.1465 18.1428 13.5735L18.1254 13.8038ZM19.6798 19.7656L18.6783 19.7672C18.47 19.7672 18.4014 19.6033 18.5287 19.4017L19.3856 17.9198C19.3856 17.9198 19.4542 17.8354 19.3931 17.3519C19.2609 16.4782 18.6031 12.7637 18.6031 12.7637C18.5551 12.5629 18.6841 12.3982 18.8923 12.3982L19.7591 12.3965C20.0244 12.3965 20.2376 12.5695 20.2855 12.7727L20.7169 15.3487L20.8772 15.3504C21.0119 15.1135 22.3969 12.7563 22.3969 12.7563C22.5291 12.558 22.7968 12.39 23.0051 12.39C23.0051 12.39 23.9364 12.3924 24.1653 12.39C24.509 12.385 24.1388 12.9375 24.1388 12.9375L20.2847 19.4017C20.1608 19.6033 19.8864 19.7656 19.6798 19.7656ZM29.6927 14.5783C29.0325 15.0561 28.1127 15.2979 26.9294 15.2979H26.6534C26.4452 15.2946 26.2369 15.4627 26.189 15.661L25.8618 17.0879C25.8138 17.2871 25.6023 17.451 25.3973 17.4486L24.428 17.451C24.2223 17.4518 24.0868 17.2863 24.1363 17.0871L25.4965 11.213C25.5461 11.0139 25.7494 10.8516 25.9593 10.8483L27.9814 10.8467C28.4152 10.8483 28.797 10.8786 29.1176 10.9352C29.444 10.9942 29.725 11.0958 29.9596 11.2409C30.1902 11.3876 30.3712 11.5753 30.4918 11.808C30.6158 12.0375 30.6761 12.3277 30.6777 12.6719C30.6777 13.4579 30.3464 14.0923 29.6927 14.5783ZM35.6904 13.8079L35.6549 14.0562L34.9475 17.0797C34.9078 17.2625 34.7252 17.4174 34.5352 17.4404L34.5219 17.4453H34.3831C34.1831 17.4453 33.7617 17.4453 33.6402 17.4453H33.6229L33.6212 17.4404C33.4336 17.4232 33.3179 17.2691 33.3634 17.0814L33.3617 17.0789L33.3659 17.0756L33.3981 16.9216L33.3923 16.9142L33.0304 17.156L32.6312 17.3748L32.1644 17.5313C32.0206 17.5682 31.8173 17.5838 31.5586 17.5879C31.1455 17.5879 30.8033 17.4715 30.5406 17.2412C30.2794 17.0068 30.1447 16.7027 30.1447 16.3306C30.1447 15.9397 30.2365 15.6053 30.4216 15.3299C30.6108 15.0545 30.8876 14.8406 31.2529 14.6783C31.5983 14.5226 32.0131 14.4095 32.4817 14.3439C32.9593 14.2751 33.356 14.2251 33.9096 14.1915L34.0484 14.1046L34.0633 13.9693C34.0633 13.7628 33.9675 13.6177 33.7708 13.5341C33.5741 13.4514 33.2783 13.4104 32.8932 13.4104C32.6288 13.4087 32.2974 13.4612 31.985 13.5309C31.6586 13.6063 31.5702 13.653 31.4107 13.7005C31.3297 13.7243 31.1554 13.7382 31.2215 13.43L31.3397 12.9481C31.3397 12.9481 31.395 12.5826 31.7644 12.5039C31.9437 12.4654 31.9726 12.4564 32.2619 12.4146C32.6519 12.3523 33.0428 12.3219 33.432 12.3219C34.2162 12.3219 34.7922 12.4252 35.1599 12.6293C35.5284 12.8326 35.7127 13.1489 35.7127 13.5759L35.6904 13.8079ZM38.7892 11.2614L37.4935 17.0814L37.4481 17.1502C37.3712 17.3142 37.2076 17.4469 37.0299 17.4469H36.1308L36.1143 17.4264C35.9433 17.4002 35.8317 17.2633 35.8722 17.0847L35.8705 17.0806L35.9094 16.9125L37.1208 11.4523L37.1638 11.2622L37.2125 11.1876C37.291 11.027 37.4514 10.8966 37.629 10.8966H38.4942C38.7049 10.8966 38.8314 11.0597 38.7867 11.2597L38.7892 11.2614ZM40.5064 10.6319H40.1824V11.0589L40.1849 11.1737L40.2072 11.2507L40.2585 11.2999L40.3576 11.3155L40.4386 11.304L40.4989 11.286H40.5064V11.4261L40.4097 11.445L40.318 11.4523L40.0982 11.3745L40.023 11.1286V10.6319H39.9139V10.4991H40.023V10.2328H40.1824V10.4991H40.5064V10.6319ZM42.0723 10.8278V11.4318H41.9161V10.8991L41.9062 10.7852L41.8856 10.695L41.831 10.6418L41.7261 10.6229L41.5947 10.6565L41.46 10.7409L41.4625 10.7868L41.4641 10.836V11.4335H41.3071V10.9007L41.3005 10.7852L41.2782 10.6958L41.2253 10.6426L41.1187 10.6237L40.989 10.6557L40.8576 10.7368V11.4335H40.7022V10.5H40.8576V10.604L41.008 10.509L41.1633 10.4746L41.327 10.5131L41.4278 10.6245L41.6013 10.509L41.7707 10.4746L41.9996 10.5672L42.074 10.8278H42.0723Z" fill="#C9C9C9"/>
<path d="M33.3798 15C33.3211 14.9994 32.8721 15.035 32.6472 15.0544C32.3891 15.0791 32.1684 15.1129 31.9904 15.1542C31.8081 15.2023 31.6599 15.2671 31.5636 15.3479C31.4682 15.4315 31.4205 15.5381 31.4205 15.6756L31.6156 15.9261C31.7399 15.9759 31.9299 16 32.1829 16C32.3422 16 32.5177 15.9736 32.7009 15.9238L33.0902 15.788L33.2504 15.6493C33.31 15.486 33.4395 15.1278 33.4497 15.0831L33.3798 15Z" fill="#C9C9C9"/>
<path d="M28.1154 12.1882C27.9396 12.063 27.6838 12.0017 27.3419 12L27.0519 12.0017C26.86 12 26.6651 12.1692 26.6255 12.3706L26.356 13.6302C26.3126 13.8325 26.4367 14.0016 26.6293 14H26.8509C27.3328 14 27.7066 13.8922 27.9761 13.6816C28.2426 13.4652 28.3781 13.1633 28.3766 12.7662C28.372 12.5075 28.289 12.3126 28.1154 12.1882Z" fill="#C9C9C9"/>
</svg>
