<svg width="92" height="30" viewBox="0 0 92 30" fill="none" xmlns="http://www.w3.org/2000/svg">
<path d="M68.1203 0.0481168C65.8652 0.407544 63.9414 1.38313 62.3563 2.96755C61.29 4.03849 60.5191 5.19013 60.0291 6.46646C59.9211 6.7452 59.8274 6.98726 59.8202 7.00193C59.813 7.00927 59.6112 6.90658 59.3807 6.76721C57.9181 5.88698 55.9583 5.90898 54.5821 6.81855C54.0706 7.15598 53.3933 7.86749 53.0763 8.40297C52.9322 8.64503 52.7233 9.11449 52.6152 9.45191C52.4423 9.96538 52.4062 10.1781 52.4062 10.8309C52.4062 11.2564 52.4278 11.6892 52.4567 11.7919C52.5071 11.9826 52.4999 11.9826 52.046 12.0339C50.3456 12.21 48.638 13.1489 47.5573 14.4986C47.0889 15.078 46.5197 16.237 46.2964 17.0292C46.1667 17.5133 46.1379 17.8068 46.1307 18.687C46.1307 19.4865 46.1523 19.7873 46.2315 19.8753C46.318 19.9927 47.4348 20 60.9802 20H75.6352L75.736 19.8386C75.7865 19.7433 75.9234 19.3252 76.0314 18.8997C76.19 18.2762 76.2188 18.0195 76.1972 17.5427C76.1539 16.8238 76.0026 16.4791 75.4911 16.017C75.0083 15.5768 74.468 15.3641 73.6898 15.3274C73.3512 15.3054 69.6982 15.2541 65.5698 15.2101C58.8331 15.1294 58.0478 15.1074 57.9469 15.0047C57.8388 14.8947 57.8388 14.8727 57.9973 14.6893L58.163 14.4986L65.6923 14.4252C69.8351 14.3812 73.5961 14.3152 74.0501 14.2785C74.6481 14.2345 75.0227 14.1611 75.383 14.0218C76.6655 13.5303 77.9119 12.4154 78.51 11.2197C78.7189 10.7943 79.6051 8.44698 79.6123 8.2856C79.6339 7.93351 79.1656 6.57649 78.7189 5.67426C77.3355 2.86485 74.7706 0.877002 71.6004 0.158146C70.9663 0.0187772 68.7688 -0.0545764 68.1203 0.0481168Z" fill="#C9C9C9"/>
<path d="M80.9364 9.09866C80.7914 9.26528 80.1702 11.3225 80.1288 11.7903C80.0529 12.649 80.4601 13.354 81.2608 13.7577C81.7785 14.0205 82.0338 14.0589 83.8768 14.1551C85.6438 14.2512 85.8371 14.2768 85.8371 14.4178C85.8371 14.4627 85.7818 14.5588 85.7197 14.6357C85.6024 14.7703 85.4919 14.7831 83.6973 14.8728C81.6956 14.9754 81.2815 15.0395 80.536 15.3535C79.5628 15.7572 78.4791 16.6865 78.0167 17.5132C77.6992 18.0707 77.4852 18.859 77.6301 18.9423C77.6854 18.9744 80.3014 19 83.4626 19C87.9423 19 89.2192 18.9808 89.302 18.9167C89.4677 18.8013 89.7093 17.6798 89.7507 16.8467C89.9233 13.5591 87.4729 10.3804 83.9734 9.36141C82.8759 9.03457 81.1227 8.88717 80.9364 9.09866Z" fill="#C9C9C9"/>
<path d="M20.7154 23.1013C19.6112 23.3621 18.645 24.0141 18.1696 24.8171C17.7325 25.5446 17.5945 26.6839 17.8475 27.4594C18.1466 28.3653 18.9287 29.2232 19.8106 29.6076C21.9039 30.5135 24.4881 29.7929 25.4312 28.0428C26.5354 25.9838 25.3009 23.616 22.8471 23.0944C22.2413 22.964 21.2675 22.9709 20.7154 23.1013ZM22.5941 24.7347C22.9085 24.8583 23.3379 25.2357 23.4989 25.5514C23.8976 26.2995 23.7903 27.1917 23.2382 27.7545C22.8701 28.132 22.6171 28.2281 21.9653 28.2212C21.3058 28.2144 20.8764 28.0702 20.493 27.7202C19.6649 26.979 19.7262 25.6475 20.6157 24.9887C21.1525 24.5906 21.9346 24.4877 22.5941 24.7347Z" fill="#C9C9C9"/>
<path d="M3.22552 23.0921C1.51647 23.4701 0.343587 25.0712 0.484333 26.8166C0.524546 27.3801 0.765824 28.0742 1.05402 28.514C1.49636 29.1737 2.30062 29.7234 3.09818 29.9227C3.52041 30.0258 4.43191 30.0258 4.85414 29.9227C5.96 29.6547 6.93181 28.7751 7.36075 27.6687L7.4948 27.3183H6.52968H5.56457L5.43053 27.5519C5.24287 27.8749 4.81393 28.1841 4.4051 28.2803C3.94935 28.3971 3.43999 28.2803 3.05796 27.9848C2.20009 27.3114 2.16658 25.834 2.99764 25.1055C3.74158 24.4527 4.92117 24.6314 5.45064 25.4766L5.6517 25.7996H6.61681L7.57522 25.8065L7.53501 25.6141C7.5082 25.511 7.38756 25.2086 7.26022 24.9475C6.5699 23.4975 4.88765 22.721 3.22552 23.0921Z" fill="#C9C9C9"/>
<path d="M65.0896 26.129C64.3286 27.858 63.6401 29.433 63.5459 29.629L63.3792 30H64.4156H65.4519L65.7273 29.37L66.0027 28.74L67.4159 28.754L68.8292 28.775L69.0901 29.384L69.3582 30H70.4308C71.0178 30 71.4962 29.986 71.4962 29.965C71.4962 29.951 70.8149 28.383 69.9815 26.486L68.4595 23.035L67.4594 23.014L66.4593 23L65.0896 26.129ZM67.8725 26.311C68.0827 26.801 68.2349 27.221 68.2204 27.242C68.1986 27.256 67.8363 27.263 67.4159 27.256L66.655 27.235L66.9811 26.465C67.155 26.038 67.3362 25.618 67.3725 25.527C67.4087 25.436 67.4522 25.373 67.4667 25.387C67.4812 25.401 67.6623 25.821 67.8725 26.311Z" fill="#C9C9C9"/>
<path d="M10.6191 26.5V30H13.1522H15.6922L15.6719 29.1727L15.6516 28.3384L14.0507 28.3172L12.443 28.303V25.6515V23H11.531H10.6191V26.5Z" fill="#C9C9C9"/>
<path d="M27.8907 25.3665C27.9216 27.6084 27.9293 27.7607 28.0912 28.1551C28.6311 29.4767 30.0731 30.141 32.0473 29.9749C33.15 29.885 33.9906 29.4559 34.4764 28.7432C34.9314 28.072 34.9699 27.8022 34.9699 25.2696V23H33.9289H32.8878V25.1658C32.8878 27.2694 32.8801 27.3386 32.7182 27.6361C32.51 28.0098 32.1629 28.2243 31.7002 28.2865C31.0293 28.3765 30.4741 28.1343 30.1657 27.6153C30.0037 27.3386 29.996 27.2417 29.9729 25.1589L29.942 23H28.9087H27.8676L27.8907 25.3665Z" fill="#C9C9C9"/>
<path d="M37.0521 23.0487C37.0219 23.0699 36.9991 24.6436 36.9991 26.5491V30L38.9523 29.9718C40.7995 29.9435 40.9282 29.9365 41.4808 29.7601C43.222 29.2167 44.2062 27.897 44.0926 26.2456C43.9715 24.4954 42.7299 23.3451 40.6708 23.0699C40.0803 22.9922 37.1278 22.9711 37.0521 23.0487ZM40.6784 24.7989C41.496 25.0247 41.9199 25.5893 41.9199 26.4573C41.9199 27.65 41.178 28.2216 39.6336 28.2216H38.9674V26.4573V24.693H39.6336C40.0046 24.693 40.474 24.7424 40.6784 24.7989Z" fill="#C9C9C9"/>
<path d="M47.1453 26.5V30H48.1856H49.2259V28.7273V27.4545H51.0368H52.8477V26.6414V25.8283H51.0368H49.2259V25.2626V24.697H51.2295H53.233V23.8485V23H50.1892H47.1453V26.5Z" fill="#C9C9C9"/>
<path d="M55.2623 26.5V30H58.3061H61.35V29.1515V28.303H59.4019H57.4538V25.6515V23H56.3581H55.2623V26.5Z" fill="#C9C9C9"/>
<path d="M73.5254 26.5V30H74.579H75.6327V28.9394V27.8788H76.14H76.6473L77.4278 28.9394L78.2082 30H79.418H80.6277L79.7302 28.8051C79.2385 28.1475 78.8326 27.5818 78.8326 27.5394C78.8326 27.504 78.9497 27.4263 79.0902 27.3768C79.8004 27.1081 80.3155 26.2808 80.3155 25.404C80.3155 24.1737 79.4024 23.297 77.8961 23.0778C77.6151 23.0354 76.5224 23 75.461 23H73.5254V26.5ZM77.5214 24.8384C77.857 24.9232 78.2082 25.2697 78.2082 25.5172C78.2082 26.1111 77.6385 26.4081 76.4366 26.4505L75.6327 26.4788V25.6232V24.7677H76.4366C76.8736 24.7677 77.3653 24.803 77.5214 24.8384Z" fill="#C9C9C9"/>
<path d="M82.7088 23.0495C82.6792 23.0707 82.6569 24.6475 82.6569 26.5495V30H85.6971H88.7446L88.7224 29.1727L88.7001 28.3384L86.7203 28.3172L84.7331 28.303V27.7727V27.2424H86.4756H88.2182V26.4646V25.6869H86.4756H84.7331V25.1566V24.6263H86.661H88.5889V23.8131V23H85.6748C84.0658 23 82.7311 23.0212 82.7088 23.0495Z" fill="#C9C9C9"/>
<path d="M90.4251 23.0387C89.7763 23.1652 89.5413 23.5945 89.9926 23.825C90.6601 24.1684 91.7885 23.9741 91.7885 23.5222C91.7885 23.2917 91.591 23.1426 91.1679 23.0567C90.82 22.9844 90.6978 22.9844 90.4251 23.0387ZM91.4029 23.2465C91.8543 23.5222 91.497 23.8973 90.773 23.8973C90.2935 23.8973 89.9832 23.7436 89.9832 23.5132C89.9832 23.2737 90.2935 23.129 90.8106 23.129C91.1303 23.129 91.2525 23.1516 91.4029 23.2465Z" fill="#C9C9C9"/>
</svg>
