<svg width="80" height="80" viewBox="0 0 80 80" fill="none" xmlns="http://www.w3.org/2000/svg">
<path fill-rule="evenodd" clip-rule="evenodd" d="M17.3335 22.6666C17.3335 10.15 27.4835 0 40.0001 0C52.5168 0 62.6668 10.15 62.6668 22.6666C62.6668 35.1833 52.5168 45.3333 40.0001 45.3333C27.4835 45.3166 17.3502 35.1833 17.3335 22.6666ZM20.0002 22.6666C20.0002 33.7166 28.9501 42.6666 40.0001 42.6666C51.0501 42.6666 60.0001 33.7166 60.0001 22.6666C60.0001 11.6166 51.0501 2.66666 40.0001 2.66666C28.9668 2.68333 20.0168 11.6333 20.0002 22.6666ZM25.3332 22.6666H22.6665C22.6832 13.0999 30.4332 5.34992 39.9998 5.33325V7.99991C31.8998 8.01658 25.3498 14.5666 25.3332 22.6666ZM24.85 44.2834L15.6333 34.05C14.4 32.65 12.4666 32.05 10.6666 32.5167V16.0001C10.6666 13.0501 8.28332 10.6667 5.33332 10.6667C2.38333 10.6667 0 13.0501 0 16.0001V44C0 44.2334 0.0499999 44.45 0.166666 44.65L13.3333 68.35V78.6666C13.3333 79.4 13.9333 80 14.6666 80H33.3333C34.0666 80 34.6666 79.4 34.6666 78.6666V61.3333C34.6499 54.3167 30.9166 47.8167 24.85 44.2834ZM31.9999 77.3333H16V69.3333H31.9999V77.3333ZM31.9999 66.6666H15.45L2.66666 43.65V16.0001C2.66666 14.5334 3.86666 13.3334 5.33332 13.3334C6.79999 13.3334 7.99999 14.5334 7.99999 16.0001V34.1667C6.33332 36.1 6.36666 38.9834 8.08332 40.8834L19 52.9L20.9666 51.1L10.05 39.0834C9.18332 38.1334 9.21665 36.65 10.1333 35.7334C10.6 35.2667 11.25 35 11.9166 35.0167C12.5833 35.0334 13.2 35.3167 13.65 35.8167L23 46.2C23.1166 46.3167 23.25 46.4167 23.4 46.5C28.7166 49.5333 31.9833 55.1833 31.9999 61.3V66.6666ZM74.6668 10.6667C71.7168 10.6667 69.3335 13.0501 69.3335 16.0001V32.5167C68.9001 32.4 68.4501 32.35 68.0168 32.3667C66.6168 32.4 65.3001 33 64.3668 34.05L55.1501 44.2834C49.0835 47.8167 45.3335 54.3167 45.3335 61.3333V78.6666C45.3335 79.4 45.9335 80 46.6668 80H65.3335C66.0668 80 66.6668 79.4 66.6668 78.6666V68.35L78.3501 47.1834C79.4334 45.3334 80.0001 43.2334 80.0001 41.1V16.0001C80.0001 13.0501 77.6168 10.6667 74.6668 10.6667ZM64.0001 77.3333H48.0002V69.3333H64.0001V77.3333ZM77.3334 41.1C77.3334 42.7834 76.8834 44.4167 76.0334 45.8667L64.5501 66.6666H48.0002V61.3333C48.0168 55.1833 51.3168 49.5167 56.6668 46.4833C56.7835 46.4167 56.9001 46.3167 57.0001 46.2167L66.3501 35.8334C66.8001 35.3334 67.4168 35.05 68.0835 35.0334C69.4168 35 70.5334 36.05 70.5668 37.3834C70.5835 38.0167 70.3501 38.6167 69.9335 39.0834L59.0168 51.1L60.9835 52.9L71.9001 40.8834C73.6168 38.9834 73.6668 36.1167 71.9835 34.1667V16.0001C71.9835 14.5334 73.1834 13.3334 74.6501 13.3334C76.1168 13.3334 77.3168 14.5334 77.3168 16.0001V41.1H77.3334ZM26.6665 71.9999H29.3332V74.6665H26.6665V71.9999ZM53.3332 71.9999H50.6665V74.6665H53.3332V71.9999ZM54.6666 22.6667C54.65 30.7667 48.1 37.3167 40 37.3334V40C49.5667 39.9834 57.3166 32.2334 57.3333 22.6667H54.6666ZM47.8331 25.3501C47.5665 24.3167 46.9998 23.3834 46.1831 22.6667C48.3831 20.7334 48.5998 17.3667 46.6665 15.1667C45.9665 14.3667 45.0331 13.7834 43.9831 13.5167V10.6667H41.3165V13.3334H38.6498V10.6667H35.9831V13.3334H33.3165C32.5832 13.3334 31.9832 13.9334 31.9832 14.6667V30.6667C31.9832 31.4 32.5832 32 33.3165 32H35.9831V34.6667H38.6498V32H41.3165V34.6667H43.9831V31.8167C46.8498 31.0834 48.5665 28.1834 47.8331 25.3501ZM42.6665 29.3334H34.6665V24.0001H42.6665C44.1331 24.0001 45.3331 25.2001 45.3331 26.6667C45.3331 28.1334 44.1331 29.3334 42.6665 29.3334ZM42.6665 21.3334H34.6665V16.0001H42.6665C44.1331 16.0001 45.3331 17.2001 45.3331 18.6667C45.3331 20.1334 44.1331 21.3334 42.6665 21.3334ZM11.9998 0H14.6665C14.6665 2.95 17.0498 5.33332 19.9998 5.33332V7.99999C17.0498 7.99999 14.6665 10.3833 14.6665 13.3333H11.9998C11.9998 10.3833 9.6165 7.99999 6.6665 7.99999V5.33332C9.6165 5.33332 11.9998 2.95 11.9998 0ZM11.0832 6.66666C11.9832 7.26665 12.7498 8.03332 13.3332 8.93332C13.9165 8.03332 14.6832 7.26665 15.5832 6.66666C14.6832 6.06666 13.9165 5.29999 13.3332 4.39999C12.7332 5.29999 11.9832 6.06666 11.0832 6.66666Z" fill="#5673CE"/>
</svg>
