<svg width="80" height="80" viewBox="0 0 80 80" fill="none" xmlns="http://www.w3.org/2000/svg">
<path fill-rule="evenodd" clip-rule="evenodd" d="M76.4845 2.29501H76.6375V2.60101H76.3315H76.1785L75.7195 2.44801L75.5665 1.98901V0.918002H75.2605V0.612002H75.5665V0H75.8725V0.612002H76.6375V0.918002H75.8725V1.836V1.98901L76.0255 2.29501H76.3315H76.4845ZM15.6226 2.14208C16.0814 2.44808 16.5401 2.90708 16.693 3.36608C16.9989 3.97808 17.1518 4.59008 17.1518 5.35509C17.1518 7.03809 16.3872 8.41509 15.011 9.4861C13.6348 10.5571 11.6469 11.0161 9.04731 11.0161H8.43566C7.97691 11.0161 7.51817 11.4751 7.51817 11.9341L6.7536 14.9941C6.60068 15.4531 6.14194 15.7591 5.68319 15.7591H3.54239C3.08365 15.7591 2.77782 15.4531 2.93073 14.9941L5.83611 2.14208C5.98902 1.68308 6.44777 1.37708 6.90651 1.37708H11.341C12.2585 1.37708 13.0231 1.37708 13.7877 1.53008C14.3993 1.68308 15.011 1.83608 15.6226 2.14208ZM9.65897 8.41509C10.7294 8.41509 11.6469 8.10909 12.2585 7.65009C12.8702 7.19109 13.176 6.42609 13.176 5.66109C13.176 5.04909 13.0231 4.59008 12.5643 4.43708C12.1056 4.13108 11.4939 3.97808 10.7294 3.97808H10.1177C9.65897 3.97808 9.20023 4.28408 9.04731 4.74308L8.43566 7.65009C8.28274 8.10909 8.58857 8.41509 9.04731 8.41509H9.65897ZM79.8469 0.765107L79.3881 0.459106L78.9294 0.612107L78.6236 0.918108L78.3177 0.612107L78.0119 0.459106L77.7061 0.612107L77.4002 0.765107V0.612107H77.0944V2.60111H77.4002V1.07111L77.7061 0.918108H78.0119H78.1648L78.3177 1.07111V1.22411V1.53011V2.60111H78.6236V1.37711V1.22411V1.07111L78.9294 0.918108H79.2352H79.541V1.07111L79.694 1.22411V1.53011V2.60111H79.9998V1.37711L79.8469 0.765107ZM23.1155 4.58997C24.7976 4.58997 26.0209 4.74297 26.9384 5.20197C27.703 5.66097 28.0088 6.42597 28.1617 7.34397V7.80297L28.0088 8.41498L26.4797 14.994C26.3267 15.3 26.0209 15.759 25.5622 15.759H25.2563H23.5743C23.1155 15.759 22.8097 15.453 22.9626 14.994L23.1155 14.688L22.351 15.147L21.4335 15.606L20.3631 15.912C20.0572 16.065 19.5985 16.065 18.9868 16.065C18.2223 16.065 17.4577 15.759 16.846 15.3C16.2344 14.841 15.9286 14.076 15.9286 13.311C15.9286 12.546 16.2344 11.781 16.5402 11.169C16.999 10.557 17.6106 10.098 18.5281 9.63898C19.1398 9.33298 20.0572 9.02698 21.1276 8.87398C21.3113 8.84773 21.486 8.82148 21.6555 8.796C22.4739 8.67298 23.1725 8.56798 24.1859 8.56798L24.4918 8.41498V8.10898C24.4918 7.64997 24.3389 7.34397 23.7272 7.34397C23.4214 7.19097 22.6568 7.03797 21.8922 7.03797C21.2806 7.03797 20.516 7.19097 19.9043 7.34397C19.6707 7.40241 19.4817 7.43853 19.3203 7.46938L19.3203 7.46938C19.059 7.5193 18.87 7.55541 18.681 7.64997C18.5281 7.64997 18.2223 7.64997 18.2223 6.88497L18.5281 5.81397C18.5281 5.81397 18.681 5.04897 19.4456 4.89597C19.7514 4.89597 19.9043 4.89597 20.516 4.74297C21.4335 4.58997 22.1981 4.58997 23.1155 4.58997ZM23.1155 13.158L23.4214 12.699C23.5743 12.24 23.8801 11.016 23.8801 11.016L23.7272 10.71C23.6712 10.71 23.5128 10.7305 23.312 10.7565L23.312 10.7565C22.9641 10.8015 22.4889 10.863 22.1981 10.863C21.7393 10.863 21.1276 11.016 20.8218 11.169L19.9043 11.781C19.7514 12.087 19.5985 12.393 19.5985 12.852L20.0572 13.617C20.3631 13.77 20.8218 13.77 21.2806 13.77C21.5864 13.77 21.8922 13.77 22.351 13.617L23.1155 13.158ZM65.015 5.20197C64.2504 4.74297 63.0271 4.58997 61.1921 4.58997C60.2746 4.58997 59.5101 4.58997 58.5926 4.74297C57.9809 4.89597 57.828 4.89597 57.5222 4.89597C56.7576 5.04897 56.6047 5.81397 56.6047 5.81397L56.4518 7.03797C56.2989 7.64997 56.7576 7.64997 56.9105 7.64997C57.0995 7.55541 57.2885 7.5193 57.5498 7.46938C57.7112 7.43853 57.9002 7.40241 58.1338 7.34397C58.7455 7.19097 59.5101 7.03797 60.1217 7.03797C60.8863 7.03797 61.6509 7.19097 61.9567 7.34397C62.4154 7.34397 62.5684 7.80297 62.5684 8.10898V8.41498L62.2625 8.56798C61.0392 8.56798 60.1217 8.72098 59.2042 8.87398C58.1338 9.02698 57.2164 9.33298 56.6047 9.63898C55.8401 9.94498 55.2285 10.404 54.7697 11.016C54.311 11.628 54.1581 12.393 54.1581 13.158C54.1581 13.923 54.4639 14.688 55.0756 15.147C55.6872 15.606 56.4518 15.912 57.2164 15.912C57.828 15.912 58.2868 15.912 58.5926 15.759L59.663 15.453L60.5805 14.994L61.3451 14.535V14.841C61.1921 15.3 61.498 15.606 61.9567 15.606H63.6388H63.9446C64.4033 15.606 64.7092 15.147 64.8621 14.841L66.3912 8.26198L66.5441 7.64997V7.19097C66.2383 6.42597 65.7796 5.66097 65.015 5.20197ZM61.6509 12.699L61.3451 13.158L60.5805 13.617C60.1217 13.77 59.663 13.77 59.3572 13.77C58.8984 13.77 58.4397 13.77 58.1338 13.617L57.6751 12.852C57.6751 12.393 57.828 12.087 57.9809 11.781C58.1338 11.475 58.4397 11.322 58.8984 11.169C59.2042 11.016 59.663 10.863 60.2746 10.863C60.5655 10.863 61.0406 10.8015 61.3885 10.7565L61.3886 10.7565L61.3886 10.7565L61.3888 10.7564C61.5895 10.7305 61.7478 10.71 61.8038 10.71L61.9567 11.016C61.9567 11.016 61.8038 12.24 61.6509 12.699ZM53.6989 2.29508C54.3106 2.60108 54.6164 3.06008 54.9222 3.51908C55.0751 3.97808 55.2281 4.59008 55.381 5.50809C55.381 7.19109 54.6164 8.56809 53.2402 9.6391C51.8639 10.7101 49.8761 11.1691 47.2765 11.1691H46.6648C46.2061 11.1691 45.7474 11.4751 45.5944 11.9341L44.8299 14.9941C44.677 15.4531 44.2182 15.7591 43.7595 15.7591H41.6187C41.1599 15.7591 40.8541 15.4531 41.007 14.9941L43.9124 2.14208C44.0653 1.68308 44.524 1.37708 44.9828 1.37708H49.4173C50.3348 1.37708 51.0994 1.37708 51.8639 1.53008C52.6285 1.68308 53.2402 1.83608 53.6989 2.29508ZM47.7352 8.41509C48.8056 8.41509 49.7231 8.10909 50.3348 7.65009C50.9465 7.19109 51.2523 6.57909 51.4052 5.81409C51.4052 5.35509 51.2523 4.89608 50.7935 4.59008C50.3348 4.28408 49.7231 4.13108 48.9586 4.13108H48.3469C47.8882 4.13108 47.4294 4.43708 47.2765 4.89608L46.6648 7.65009C46.5119 8.10909 46.8178 8.41509 47.2765 8.41509H47.7352ZM72.8135 2.29491C72.9664 1.83591 72.6606 1.52991 72.2019 1.52991H70.3669C69.9081 1.52991 69.6023 1.83591 69.4494 2.14191L69.2965 2.29491L69.1436 2.75391L66.544 14.6879L66.3911 14.9939C66.2382 15.4529 66.544 15.7589 66.8499 15.7589H68.8377C69.2965 15.7589 69.6023 15.4529 69.7552 15.1469L69.9081 14.9939L72.8135 2.29491ZM38.7127 4.74304H41.1593C41.7499 4.74304 41.3369 5.47328 41.1888 5.73518C41.1452 5.81236 41.1245 5.84887 41.1593 5.81404L32.749 20.0431C32.4432 20.5021 31.8315 20.8081 31.3728 20.8081H29.232C28.7732 20.8081 28.6203 20.5021 28.9262 20.0431L30.914 16.8301C30.914 16.8301 31.067 16.6771 30.914 15.6061C30.6082 13.6171 29.232 5.50804 29.232 5.50804C29.0791 5.04904 29.3849 4.74304 29.8436 4.74304H31.6786C32.1374 4.74304 32.5961 5.04904 32.749 5.50804L33.6665 11.1691H33.9723C34.2782 10.7101 37.3365 5.50804 37.3365 5.50804C37.6423 5.04904 38.2539 4.74304 38.7127 4.74304ZM75.8888 37.6267C76.5665 37.6267 77.1087 37.0842 77.1087 36.4061V31.6745C77.1087 28.5704 74.5786 26.0388 71.4762 26.0388H5.63255C2.53013 26.0388 0 28.5704 0 31.6745V74.3643C0 77.4685 2.53013 80 5.63255 80H71.4762C74.5786 80 77.1087 77.4685 77.1087 74.3643V40.3692C77.1087 39.6911 76.5665 39.1486 75.8888 39.1486C75.2111 39.1486 74.6689 39.6911 74.6689 40.3692V74.3643C74.6689 76.1273 73.2382 77.5589 71.4762 77.5589H5.63255C3.8705 77.5589 2.43977 76.1273 2.43977 74.3643V31.6745C2.43977 29.9115 3.8705 28.48 5.63255 28.48H71.4762C73.2382 28.48 74.6689 29.9115 74.6689 31.6745V36.4212C74.6689 37.0842 75.2111 37.6267 75.8888 37.6267ZM25.6331 48.5063H28.103C29.0367 48.5063 29.7596 48.8529 29.7596 49.9077C29.7596 50.8872 29.0819 51.2338 28.103 51.2338H25.6331V48.5063ZM28.012 44.2418H25.6175V46.5172H28.012C28.5391 46.5172 29.2771 46.2309 29.2771 45.387C29.2771 44.5131 28.6596 44.2418 28.012 44.2418ZM39.2927 45.1309H39.3228L40.6481 49.2898H37.9523L39.2927 45.1309ZM19.5185 57.8942H17.8318V59.7326H19.6089C20.2565 59.7326 20.5878 59.386 20.5878 58.7682C20.6029 58.1654 20.1209 57.8942 19.5185 57.8942ZM27.2437 58.4517H27.2739L28.1775 61.3147H26.3251L27.2437 58.4517ZM66.7625 57.8942H65.0758V59.7326H66.8679C67.5155 59.7326 67.8469 59.386 67.8469 58.7682C67.8469 58.1654 67.3649 57.8942 66.7625 57.8942ZM72.3694 63.118C72.3732 63.153 72.3766 63.1848 72.3794 63.2134C72.7108 63.8614 72.7559 64.6299 72.4246 65.2929C72.033 66.1819 71.1595 66.7696 70.1806 66.7696H68.0722C67.515 66.7696 66.9728 66.5888 66.5511 66.2422C66.1294 66.5737 65.6023 66.7696 65.03 66.7696H62.9065C62.6957 66.7696 62.4999 66.7395 62.3041 66.6943C62.1083 66.7395 61.9125 66.7696 61.7017 66.7696H55.0751C53.7649 66.7696 52.6956 65.7299 52.6504 64.4189C52.6203 65.7148 51.536 66.7696 50.2257 66.7696H48.1022C47.5751 66.7696 47.0932 66.5888 46.6866 66.3025C45.798 66.7094 44.7287 66.9354 43.554 66.9354C42.3793 66.9354 41.3402 66.7094 40.4667 66.2874C40.06 66.5888 39.563 66.7696 39.0209 66.7696H36.8371C36.31 66.7696 35.813 66.6039 35.4064 66.3025C34.9998 66.6039 34.5028 66.7696 33.9757 66.7696H31.9727C31.8823 66.7696 31.7769 66.7696 31.6865 66.7546C31.5811 66.7696 31.4907 66.7696 31.3853 66.7696H29.1714C28.4034 66.7696 27.6955 66.408 27.2437 65.8203C26.7919 66.408 26.0841 66.7696 25.316 66.7696H23.1323H23.072H22.9817H20.8732C20.316 66.7696 19.7738 66.5888 19.3521 66.2422C18.9304 66.5737 18.4033 66.7696 17.831 66.7696H15.7075C15.0449 66.7696 14.4575 66.5135 14.0208 66.0915C13.584 66.5135 12.9967 66.7696 12.334 66.7696H10.2105C8.8551 66.7696 7.77076 65.6696 7.77076 64.3285V60.4257C6.41533 60.4257 5.33099 59.3257 5.33099 57.9845V56.1462C5.33099 55.6941 5.46653 55.2722 5.67738 54.9105C5.45147 54.5489 5.33099 54.1269 5.33099 53.6749V51.0981C5.33099 50.7365 5.40629 50.3899 5.5569 50.0734C5.42135 49.7721 5.33099 49.4255 5.33099 49.0488V46.472C5.33099 46.1104 5.40629 45.7638 5.5569 45.4473C5.42135 45.146 5.33099 44.7994 5.33099 44.4227V41.8308C5.33099 40.4747 6.43039 39.3897 7.77076 39.3897H20.6473C20.9786 39.3897 21.31 39.465 21.5961 39.5856C21.8973 39.45 22.2136 39.3897 22.5449 39.3897H28.072H28.2678C29.8642 39.3897 31.2196 39.6911 32.2739 40.2938C33.4636 40.9719 34.2618 41.9966 34.6082 43.2774L35.4666 40.9719C35.813 40.0226 36.7317 39.3897 37.7407 39.3897H40.8733C41.8823 39.3897 42.7859 40.0226 43.1474 40.9719L43.7347 42.524V41.8158C43.7347 40.4596 44.8341 39.3746 46.1745 39.3746H49.3522C50.2107 39.3746 50.9938 39.8116 51.4306 40.5349C51.8673 39.8418 52.6354 39.3746 53.5089 39.3746H56.4155C56.792 39.3746 57.1535 39.465 57.4697 39.6157C57.786 39.465 58.1474 39.3746 58.524 39.3746H61.6113C62.4095 39.3746 63.1173 39.7664 63.5541 40.3541L63.6595 40.2336C64.1264 39.7061 64.8041 39.3897 65.5119 39.3897H69.3523C70.7077 39.3897 71.7921 40.4897 71.7921 41.8308C71.7921 42.4788 71.536 43.0815 71.1144 43.5185L68.0872 46.7433L71.9126 52.3187C72.4246 53.0721 72.4848 54.0365 72.0632 54.8352C71.8975 55.1365 71.6867 55.3927 71.4306 55.6037C72.0632 56.3873 72.4095 57.3667 72.4095 58.4818C72.4095 59.2503 72.2288 59.9736 71.9276 60.6065C72.1083 61.0736 72.2439 61.6312 72.3041 62.2942V62.3394C72.3192 62.3846 72.3192 62.4449 72.3192 62.5052C72.3314 62.7616 72.3535 62.9685 72.3694 63.118ZM7.77076 41.8308V44.0459V44.4227H20.6473V41.8308H20.1051H7.77076ZM7.77076 46.8487V48.6871V49.0488H20.6473V46.472H7.77076V46.8487ZM7.77076 51.1283V51.505V53.705H20.1051H20.6473V51.1283H7.77076ZM13.2678 58.0147H14.7587V56.1763H13.2678H7.77076V58.0147H10.1955V64.3586H12.334V58.0147H13.2678ZM20.7377 63.9367C20.7678 64.1025 20.813 64.2682 20.8732 64.3586L22.9817 64.3134C22.7379 64.0695 22.6799 63.1582 22.6495 62.6795C22.6442 62.5964 22.6397 62.5263 22.6353 62.475C22.5901 61.8421 22.4094 61.0887 21.8823 60.712L21.8672 60.6969C21.8521 60.6894 21.8371 60.6781 21.822 60.6668C21.807 60.6555 21.7919 60.6442 21.7768 60.6366C21.7693 60.6366 21.7618 60.6329 21.7542 60.6291C21.7467 60.6253 21.7392 60.6216 21.7317 60.6216L21.6413 60.5764C21.6338 60.5764 21.6262 60.5726 21.6187 60.5688C21.6112 60.5651 21.6036 60.5613 21.5961 60.5613L21.4606 60.5161V60.501C21.5208 60.486 21.581 60.4558 21.6413 60.4257C21.6488 60.4181 21.6564 60.4144 21.6639 60.4106C21.6714 60.4068 21.6789 60.4031 21.6865 60.3955C21.6936 60.392 21.7015 60.3884 21.7099 60.3847C21.7371 60.3725 21.7689 60.3583 21.7919 60.3353C21.822 60.3353 21.8371 60.3202 21.8521 60.3051C21.8642 60.2971 21.8753 60.2901 21.8855 60.2836C21.9135 60.2658 21.9355 60.2518 21.9576 60.2298C21.9726 60.2298 21.9877 60.2147 22.0027 60.1996C22.0253 60.177 22.0479 60.1582 22.0705 60.1394C22.0931 60.1205 22.1157 60.1017 22.1383 60.0791C22.5449 59.6572 22.7407 59.0695 22.7407 58.4667C22.7407 57.1256 21.807 56.4475 20.6774 56.2366H20.6322C20.6006 56.2287 20.5649 56.2249 20.5271 56.2209C20.493 56.2173 20.4572 56.2136 20.4214 56.2064H20.331C20.3009 56.2064 20.2708 56.2027 20.2407 56.1989C20.2106 56.1951 20.1804 56.1914 20.1503 56.1914C20.06 56.1763 19.9696 56.1763 19.8792 56.1763H17.2136H15.7226V60.2599V64.3586H17.8461V61.3901H19.4575C20.4515 61.3901 20.5871 62.2339 20.6473 63.0627V63.123C20.6501 63.1567 20.6529 63.1957 20.656 63.2388C20.6696 63.4265 20.6887 63.6916 20.7377 63.9367ZM29.1865 64.3586H29.563H31.4305L28.3732 56.1914H26.2046L23.1473 64.3586H25.3311L25.4214 64.1175L25.8431 62.897H28.6895L29.1865 64.3586ZM30.3311 53.4488C30.5419 53.3886 30.7377 53.3283 30.9335 53.2379C32.0931 52.7105 32.8461 51.731 32.8763 49.9529C32.8763 49.4858 32.7859 49.0488 32.6052 48.657C32.4847 48.3857 32.319 48.1446 32.1233 47.9337C32.1233 47.9262 32.1195 47.9224 32.1157 47.9186C32.112 47.9148 32.1082 47.9111 32.1082 47.9035C32.0781 47.8634 32.0346 47.8232 31.9911 47.783C31.9693 47.7629 31.9476 47.7428 31.9275 47.7227L31.9124 47.7077L31.6865 47.5268H31.6714L31.4455 47.3912C31.4235 47.3912 31.4095 47.3831 31.3918 47.3729C31.3853 47.3691 31.3783 47.3651 31.3702 47.3611C31.295 47.331 31.2348 47.3008 31.1746 47.2707L31.1745 47.2707C31.1594 47.2631 31.1481 47.2594 31.1368 47.2556C31.1255 47.2518 31.1142 47.2481 31.0992 47.2405L30.8281 47.1501C31.7618 46.683 32.3943 45.8241 32.3943 44.7542V44.5281V44.4528C32.3943 44.4302 32.3906 44.4076 32.3868 44.385C32.383 44.3624 32.3793 44.3398 32.3793 44.3172C32.3793 44.3109 32.3767 44.3021 32.3737 44.2918C32.3694 44.2771 32.3642 44.2595 32.3642 44.2418C32.3642 44.2192 32.3605 44.2004 32.3567 44.1816C32.3529 44.1627 32.3492 44.1439 32.3492 44.1213C32.3492 44.115 32.3466 44.1062 32.3435 44.0959C32.3393 44.0812 32.3341 44.0636 32.3341 44.0459C32.3266 44.0309 32.3228 44.012 32.319 43.9932C32.3153 43.9744 32.3115 43.9555 32.304 43.9405C32.2955 43.932 32.2918 43.9188 32.2875 43.9035C32.2842 43.8916 32.2805 43.8783 32.2739 43.8651C32.2673 43.8453 32.2635 43.8284 32.2602 43.8131C32.2559 43.7935 32.2522 43.7766 32.2437 43.7596C32.2362 43.7446 32.2324 43.7333 32.2287 43.722C32.2249 43.7107 32.2211 43.6994 32.2136 43.6843C32.2136 43.6542 32.1986 43.624 32.1835 43.5939L32.1835 43.5939C32.176 43.5788 32.1722 43.5675 32.1684 43.5562C32.1647 43.5449 32.1609 43.5336 32.1534 43.5185L32.1082 43.4281C32.1007 43.4131 32.0931 43.4018 32.0856 43.3905C32.0781 43.3792 32.0705 43.3679 32.063 43.3528C32.048 43.3377 32.0329 43.3076 32.0178 43.2774C32.0103 43.2699 32.0028 43.2586 31.9952 43.2473C31.9877 43.236 31.9802 43.2247 31.9727 43.2172C31.9651 43.2021 31.9576 43.1908 31.9501 43.1795C31.9425 43.1682 31.935 43.1569 31.9275 43.1418C31.9199 43.1343 31.9124 43.123 31.9049 43.1117C31.8974 43.1004 31.8898 43.0891 31.8823 43.0815C31.8522 43.0514 31.8371 43.0363 31.822 43.0062C31.8145 42.9987 31.807 42.9874 31.7995 42.9761C31.7919 42.9648 31.7844 42.9535 31.7769 42.9459L31.7166 42.8857L31.6564 42.8254L31.5961 42.7651C31.5886 42.7576 31.5773 42.75 31.566 42.7425C31.5547 42.735 31.5434 42.7274 31.5359 42.7199C31.5208 42.7124 31.5095 42.7011 31.4983 42.6898C31.487 42.6785 31.4757 42.6672 31.4606 42.6596C31.4531 42.6521 31.4418 42.6446 31.4305 42.637C31.4192 42.6295 31.4079 42.6219 31.4004 42.6144C31.3702 42.5843 31.3552 42.5692 31.3251 42.5541C31.3175 42.5466 31.3062 42.5391 31.2949 42.5315C31.2836 42.524 31.2723 42.5165 31.2648 42.5089C31.2498 42.5014 31.2385 42.4939 31.2272 42.4863C31.2159 42.4788 31.2046 42.4713 31.1895 42.4637C31.182 42.4562 31.1707 42.4487 31.1594 42.4411C31.1481 42.4336 31.1368 42.4261 31.1293 42.4185C31.1142 42.4035 31.0841 42.3884 31.054 42.3733L31.054 42.3733C31.0319 42.3733 31.0179 42.3652 31.0002 42.355C30.9937 42.3512 30.9867 42.3472 30.9787 42.3432L30.8883 42.298C30.8733 42.2904 30.862 42.2867 30.8507 42.2829C30.8394 42.2791 30.8281 42.2754 30.813 42.2678L30.7226 42.2226C30.7076 42.2151 30.6963 42.2113 30.685 42.2076C30.6737 42.2038 30.6624 42.2 30.6473 42.1925C30.6323 42.185 30.6172 42.1812 30.6022 42.1774C30.5871 42.1737 30.572 42.1699 30.557 42.1624C30.5419 42.1548 30.5306 42.1511 30.5193 42.1473C30.508 42.1435 30.4967 42.1398 30.4817 42.1322C30.4666 42.1247 30.4516 42.1209 30.4365 42.1171C30.4214 42.1134 30.4064 42.1096 30.3913 42.1021C30.3763 42.0945 30.365 42.0908 30.3537 42.087C30.3424 42.0832 30.3311 42.0795 30.316 42.0719C30.301 42.0644 30.2859 42.0606 30.2708 42.0569C30.2558 42.0531 30.2407 42.0493 30.2257 42.0418C30.2194 42.0418 30.2106 42.0392 30.2003 42.0362C30.1856 42.0319 30.168 42.0267 30.1504 42.0267C30.1353 42.0192 30.1202 42.0154 30.1052 42.0117C30.0901 42.0079 30.0751 42.0041 30.06 41.9966C30.0538 41.9966 30.0449 41.994 30.0346 41.991C30.02 41.9867 30.0023 41.9815 29.9847 41.9815C29.9598 41.9815 29.9395 41.977 29.9213 41.9729C29.9063 41.9695 29.8928 41.9665 29.8793 41.9665C29.8642 41.9665 29.8492 41.9627 29.8341 41.9589C29.819 41.9552 29.804 41.9514 29.7889 41.9514C29.764 41.9514 29.7437 41.9468 29.7255 41.9427C29.7106 41.9394 29.697 41.9363 29.6835 41.9363C29.6684 41.9363 29.6534 41.9326 29.6383 41.9288C29.6232 41.925 29.6082 41.9213 29.5931 41.9213C29.5683 41.9213 29.5479 41.9167 29.5297 41.9126C29.5148 41.9092 29.5012 41.9062 29.4877 41.9062C29.4726 41.9062 29.4576 41.9024 29.4425 41.8987C29.4275 41.8949 29.4124 41.8911 29.3973 41.8911C29.3823 41.8911 29.3635 41.8873 29.3446 41.8836C29.3258 41.8798 29.307 41.876 29.2919 41.876C29.2618 41.861 29.2317 41.861 29.2016 41.861C29.1714 41.8459 29.1263 41.8459 29.0961 41.8459C29.066 41.8308 29.0359 41.8308 29.0058 41.8308C28.9757 41.8158 28.9305 41.8158 28.9004 41.8158H28.81H28.7046H28.6142H28.5088H28.4335H28.3281H28.2528H28.2377H28.057H23.057H22.5148V53.6899H23.057H28.2076H28.5389H28.6142C28.7347 53.6899 28.8401 53.6899 28.9455 53.6749H28.9757C29.0284 53.6673 29.0811 53.6636 29.1338 53.6598C29.1865 53.656 29.2392 53.6523 29.2919 53.6447H29.322C29.4425 53.6297 29.5479 53.6146 29.6534 53.5995H29.6835C29.8943 53.5543 30.1052 53.5091 30.316 53.4488H30.3311ZM38.313 64.3586H39.0359V56.1763H38.4335H37.0329V61.2093H37.0028L34.1715 56.1763H31.9877V58.9941V64.3586H33.8251H33.9907V59.2654H34.0209L36.8522 64.3586H38.313ZM36.4757 53.705L37.2287 51.5803V51.5653H41.3552L42.0932 53.6899H42.1685H45.301L43.7347 49.4858L40.8733 41.8308H37.7407L33.298 53.705H34.1413H36.4757ZM44.8191 64.4038C44.8643 64.3925 44.9094 64.3812 44.9546 64.3737C46.1745 64.0723 47.1233 63.3189 47.1836 61.7819C47.1836 60.3955 46.1444 59.838 45.0601 59.4914H45.045C45.0216 59.4836 44.9993 59.4758 44.9777 59.4683C44.9157 59.4467 44.8599 59.4272 44.804 59.4161C44.547 59.3445 44.2907 59.2834 44.0468 59.2253C43.1616 59.0144 42.4396 58.8424 42.4396 58.3462C42.4396 57.8188 43.0119 57.653 43.4637 57.653C44.1113 57.653 44.804 57.8941 44.7739 58.6325H45.7227H46.8974C46.8823 57.216 45.9185 56.4325 44.7438 56.1311C44.3823 56.0407 44.0058 55.9955 43.6293 55.9955C43.1775 55.9955 42.6956 56.0557 42.2438 56.1914H42.2137C42.176 56.2064 42.1383 56.2177 42.1007 56.229C42.063 56.2403 42.0254 56.2516 41.9877 56.2667C41.9802 56.2667 41.9765 56.2705 41.9727 56.2742C41.9689 56.278 41.9652 56.2818 41.9576 56.2818C41.92 56.2968 41.8861 56.3119 41.8522 56.327C41.8183 56.342 41.7844 56.3571 41.7468 56.3722C41.7393 56.3722 41.7355 56.376 41.7317 56.3797C41.728 56.3835 41.7242 56.3873 41.7167 56.3873C40.9185 56.764 40.301 57.4421 40.301 58.4818C40.301 59.4613 40.813 60.0339 41.5058 60.3955C41.7618 60.5312 42.048 60.6517 42.3492 60.7421C42.3567 60.7421 42.3643 60.7459 42.3718 60.7497C42.3793 60.7534 42.3868 60.7572 42.3944 60.7572L42.6655 60.8476C42.8755 60.9061 43.0847 60.9586 43.2866 61.0092C44.2286 61.2453 45.0149 61.4424 45.0149 62.038C45.0149 62.6408 44.3522 62.8668 43.7046 62.8668C42.801 62.8668 42.1986 62.5654 42.1534 61.601H41.4757H40.0299C40.0299 62.8367 40.6173 63.6353 41.4757 64.0723C41.5359 64.1175 41.6112 64.1476 41.6865 64.1778L41.6865 64.1778C41.6941 64.1778 41.6978 64.1816 41.7016 64.1853C41.7054 64.1891 41.7091 64.1929 41.7167 64.1929L41.9426 64.2833H41.9576L41.9577 64.2833C42.033 64.3134 42.1083 64.3436 42.1835 64.3586H42.1986C42.2634 64.3845 42.3392 64.3993 42.4071 64.4125C42.4182 64.4147 42.429 64.4168 42.4396 64.4189C42.4546 64.434 42.4697 64.434 42.4847 64.434C42.5224 64.4415 42.5638 64.449 42.6052 64.4566C42.6466 64.4641 42.6881 64.4716 42.7257 64.4792H42.7408C42.7784 64.4867 42.8198 64.4905 42.8612 64.4942C42.9026 64.498 42.9441 64.5018 42.9817 64.5093H43.0269C43.0646 64.5093 43.106 64.5131 43.1474 64.5169C43.1888 64.5206 43.2302 64.5244 43.2679 64.5244H43.3131H43.5691H43.8251H43.8703C43.9079 64.5244 43.9494 64.5206 43.9908 64.5168C44.0322 64.5131 44.0736 64.5093 44.1113 64.5093H44.1414C44.3221 64.4942 44.5028 64.4641 44.6685 64.434H44.6835C44.7287 64.4264 44.7739 64.4151 44.8191 64.4038ZM52.6806 57.8941H54.1414V56.1763H52.6806H48.6595H48.1324V64.3586H48.9155H50.2559V61.2093H52.6806H53.6143V59.5668H52.6806H50.2559V57.8941H52.6806ZM49.1263 46.3063L53.2529 53.705V53.7201H56.0992H56.4306V41.8459H56.0992H53.5239V49.1543H53.4938L49.3673 41.8459H46.1896V49.0638V53.705H47.7558H49.0962V46.3063H49.1263ZM60.5119 64.3586H61.7318L61.7469 62.5052H60.527H57.2589V60.9531H60.527H61.2499V59.3106H60.527H57.2589V57.8791H60.527H61.6414V56.1763H60.527H56.5812H55.1203V63.123V64.3586H60.5119ZM61.6113 50.0433L62.8764 48.7173L66.0692 53.705H69.9095L64.9698 46.5022L69.3523 41.8308H65.5119L61.6113 46.3816V41.8308H58.8553H58.524V53.705H58.8553H61.6113V50.0433ZM67.8953 63.2461C67.9242 63.5822 67.9721 64.1407 68.1174 64.3586L70.2409 64.3436C69.9971 64.0996 69.9391 63.1884 69.9087 62.7097C69.9034 62.6266 69.8989 62.5565 69.8945 62.5052C69.8192 61.7216 69.5782 60.7572 68.7047 60.5462V60.5312C69.5632 60.1996 69.9848 59.3709 69.9848 58.4818C69.9848 56.8242 68.5692 56.1763 67.1234 56.1763H64.0661H62.9517V64.3436H64.1716H65.0752V61.375H66.6866C67.6806 61.375 67.8162 62.2189 67.8764 63.0476C67.8823 63.095 67.8882 63.1639 67.8953 63.2461Z" fill="#5673CE"/>
</svg>
