<svg width="86" height="80" viewBox="0 0 86 80" fill="none" xmlns="http://www.w3.org/2000/svg">
<path fill-rule="evenodd" clip-rule="evenodd" d="M70.1574 31.431C78.9067 31.431 85.9999 24.3948 85.9999 15.7155C85.9999 7.03627 78.9067 0 70.1574 0C61.408 0 54.3148 7.03627 54.3148 15.7155C54.3148 24.3948 61.408 31.4132 70.1574 31.431ZM70.1574 2.85737C77.3225 2.85737 83.1194 8.60782 83.1194 15.7155C83.1194 22.8232 77.3225 28.5737 70.1574 28.5737C62.9922 28.5737 57.1953 22.8232 57.1953 15.7155C57.1953 8.62568 62.9922 2.85737 70.1574 2.85737ZM64.3962 25.7163V22.8589C63.5861 22.8589 62.956 22.216 62.974 21.4302V10.0008C62.974 9.215 63.6221 8.57209 64.4142 8.57209V5.71472H67.2947V8.57209H68.7349V5.71472H71.6154V8.57209H73.0556C74.1358 8.55423 75.1799 8.96498 75.9721 9.67932C77.7183 11.2687 77.8444 13.9654 76.2421 15.7155C76.9622 16.5013 77.3583 17.5371 77.3583 18.6086C77.3403 20.9659 75.414 22.8768 73.0376 22.8589H71.5974V25.7163H68.7169V22.8589H67.2767V25.7163H64.3962ZM73.0376 11.4295H65.8364V14.2868H73.0376C73.8297 14.2868 74.4778 13.6439 74.4778 12.8581C74.4778 12.0724 73.8297 11.4295 73.0376 11.4295ZM73.0376 17.1442H65.8364V20.0016H73.0376C73.8297 20.0016 74.4778 19.3587 74.4778 18.5729C74.4778 17.7871 73.8297 17.1442 73.0376 17.1442ZM51.7044 15.6977L51.4344 16.5013L50.8043 18.3943C50.3143 18.2323 49.7947 18.0997 49.2858 17.9698L49.13 17.93C56.5472 23.5555 61.0659 32.1633 61.462 41.4319H68.6451C68.5191 39.0745 68.069 36.7529 67.3129 34.5385L70.0313 33.6098C73.6319 44.0928 70.8055 55.683 62.7762 63.38C62.1101 64.0229 61.408 64.6301 60.6878 65.2016C56.3671 68.6304 51.1283 70.7377 45.6194 71.2735C44.7013 71.3628 43.7651 71.4164 42.829 71.4164H42.757H42.721C34.9437 71.3985 27.5086 68.2554 22.1077 62.7193C11.0359 51.3791 11.342 33.2884 22.7738 22.3232C23.4399 21.6803 24.142 21.0731 24.8621 20.5016C28.2287 17.8407 32.1353 15.9834 36.33 15.0369C37.5181 14.7691 38.7243 14.5547 39.9305 14.4297C40.8487 14.3404 41.7848 14.2869 42.721 14.2869H42.811H42.847C45.8535 14.2869 48.842 14.7691 51.7044 15.6977ZM27.1844 22.3411L27.1844 22.3412L27.1843 22.3412L27.1843 22.3412L27.1842 22.3413C26.8963 22.5555 26.6083 22.7697 26.3384 23.0018C26.3072 23.0265 26.274 23.0555 26.24 23.085L26.24 23.0851L26.24 23.0851C26.1758 23.141 26.1092 23.199 26.0503 23.234C27.1305 24.0019 28.2827 24.6805 29.4709 25.2877C31.3792 22.4839 33.7195 20.0016 36.42 17.93C36.2898 17.9697 36.1541 18.0039 36.0159 18.0388L36.0159 18.0388L36.0158 18.0388L36.0158 18.0388L36.0157 18.0388C35.9055 18.0666 35.7937 18.0948 35.6819 18.1265C35.3367 18.2263 35.0029 18.3376 34.6624 18.4512C34.5767 18.4798 34.4905 18.5085 34.4037 18.5372C34.0796 18.6444 33.7555 18.7515 33.4315 18.8765C33.0356 19.0372 32.6577 19.1978 32.2798 19.3585L32.2797 19.3585L32.2797 19.3585L32.2796 19.3586L32.2796 19.3586L32.2793 19.3587C32.201 19.3937 32.1235 19.4278 32.0467 19.4616L32.0466 19.4616C31.7704 19.5833 31.5028 19.7012 31.2351 19.8409C31.1211 19.9004 31.0092 19.9579 30.8972 20.0155L30.897 20.0155C30.673 20.1306 30.449 20.2457 30.209 20.3766C29.8489 20.5731 29.4889 20.7874 29.1468 21.0017L28.2287 21.591C27.9646 21.7613 27.7103 21.9507 27.4585 22.1383L27.4584 22.1383L27.4584 22.1383C27.3669 22.2065 27.2757 22.2744 27.1845 22.3411L27.1844 22.3411ZM27.9586 27.7701C26.5724 27.0379 25.2222 26.1807 23.944 25.252C19.7313 29.6452 17.2469 35.3778 16.9409 41.4319H24.106C24.34 36.6458 25.6543 31.9668 27.9586 27.7701ZM24.124 44.2892H16.9409C17.2469 50.3433 19.7313 56.0759 23.962 60.4691C25.2222 59.5404 26.5724 58.6832 27.9766 57.951C25.6543 53.7364 24.34 49.0753 24.124 44.2892ZM34.5837 67.2375C34.8897 67.3446 35.2138 67.4518 35.5378 67.5411C35.7782 67.6156 36.0311 67.6777 36.2756 67.7377L36.42 67.7732C33.7195 65.7016 31.3792 63.2193 29.4709 60.4155C28.2827 61.0227 27.1485 61.7013 26.0503 62.4692C26.1043 62.5139 26.1538 62.5585 26.2033 62.6031L26.2033 62.6032L26.2035 62.6033C26.2529 62.6479 26.3024 62.6925 26.3564 62.7371L26.3566 62.7373C26.6266 62.9515 26.8965 63.1658 27.1665 63.3622L27.1666 63.3622L27.1666 63.3622L27.1666 63.3623L27.1667 63.3623L27.1667 63.3623C27.5267 63.6301 27.8867 63.898 28.2647 64.1479C28.5527 64.3444 28.8408 64.523 29.1288 64.7016C29.5069 64.9337 29.9029 65.1659 30.281 65.3802C30.569 65.5409 30.8751 65.7016 31.1811 65.8445C31.5772 66.041 31.9733 66.2195 32.3873 66.3981C32.6934 66.541 32.9994 66.666 33.3235 66.791C33.6531 66.9189 33.994 67.0356 34.3283 67.1499L34.3295 67.1503L34.3333 67.1516C34.4173 67.1803 34.5008 67.2089 34.5837 67.2375ZM32.1173 59.1833C34.5297 62.63 37.6802 65.5052 41.3528 67.6125V57.1831C38.1843 57.326 35.0698 58.0046 32.1173 59.1833ZM30.569 56.7188C33.9896 55.2901 37.6442 54.4865 41.3528 54.3257H41.3348V44.2892H26.9865C27.2205 48.6467 28.4447 52.8971 30.569 56.7188ZM27.0045 41.4319H41.3528H41.3708V31.3954C37.6622 31.2346 34.0076 30.431 30.587 29.0023C28.4447 32.824 27.2205 37.0744 27.0045 41.4319ZM32.1173 26.5378C35.0518 27.7165 38.1843 28.3951 41.3528 28.538V18.1086C37.6982 20.2159 34.5297 23.0911 32.1173 26.5378ZM58.5815 44.2892H44.2332L44.2152 54.3257C47.9238 54.4865 51.5784 55.2901 54.9989 56.7188C57.1413 52.8971 58.3655 48.6467 58.5815 44.2892ZM44.2332 57.201V67.6304C47.8878 65.5231 51.0383 62.63 53.4687 59.2011C50.5342 58.0225 47.4017 57.3438 44.2332 57.201ZM58.3835 63.3622C58.6715 63.1657 58.9596 62.9514 59.2296 62.7193C59.3196 62.6478 59.4276 62.5407 59.5177 62.4514C58.4375 61.6835 57.2853 61.0048 56.0971 60.3976C54.1888 63.2014 51.8484 65.6838 49.148 67.7554C49.4 67.7018 49.6341 67.6482 49.8861 67.5768C50.2609 67.4727 50.6107 67.3562 50.9667 67.2377L50.9668 67.2376L50.9669 67.2376C51.0384 67.2138 51.1101 67.1899 51.1823 67.166L51.1828 67.1659L51.1829 67.1659L51.1829 67.1658L51.183 67.1658L51.1831 67.1658C51.5069 67.0587 51.8307 66.9516 52.1545 66.8267C52.5505 66.666 52.9286 66.5053 53.3067 66.3445L54.3328 65.8624C54.6749 65.7016 55.0169 65.523 55.359 65.3266C55.719 65.1302 56.0791 64.9159 56.4212 64.7016L57.3393 64.1122C57.6994 63.8801 58.0414 63.63 58.3835 63.3622ZM61.642 60.4691C65.8547 56.0759 68.3391 50.3433 68.6451 44.2892H61.48C61.2459 49.0753 59.9317 53.7543 57.6274 57.951C59.0136 58.6832 60.3638 59.5404 61.642 60.4691ZM44.2332 41.4319H58.5815C58.3475 37.0744 57.1233 32.824 55.0169 29.0023C51.5964 30.431 47.9418 31.2346 44.2332 31.3954V41.4319ZM44.2332 28.538C47.4017 28.3773 50.5162 27.7165 53.4687 26.5378C51.0383 23.0911 47.8878 20.2159 44.2332 18.1086V28.538ZM72.0116 47.5573L77.7725 41.8426C78.3306 41.289 79.2487 41.289 79.8068 41.8604L85.5678 47.5752L83.5334 49.5932L80.0769 46.1644C78.5106 63.5586 64.9545 77.5061 47.4917 79.7027C26.9684 82.2743 8.22743 67.8803 5.63502 47.5216L8.49748 47.1644C10.4958 62.9514 23.1698 75.2916 39.1204 76.9704C58.0954 78.9705 75.1261 65.3266 77.1424 46.5037L74.0459 49.5753L72.0116 47.5573ZM6.78708 44.2892C7.16514 44.2892 7.5432 44.1463 7.81324 43.8784L13.5742 38.1637L11.5218 36.1278L8.42534 39.1995C10.4597 20.3766 27.5264 6.73265 46.5194 8.76852C48.4097 8.96497 50.3 9.32214 52.1363 9.84004L52.9104 7.08982C32.9813 1.55367 12.314 13.1082 6.73307 32.8776C6.12098 35.0742 5.70691 37.3065 5.49087 39.5745L2.03432 36.1457L0 38.1637L5.76092 43.8784C6.03096 44.1463 6.39102 44.2892 6.78708 44.2892ZM79.9685 38.378L77.106 38.7173C76.872 36.8601 76.4939 35.0385 75.9719 33.2526L78.7443 32.449C79.3204 34.3777 79.7165 36.3779 79.9685 38.378Z" fill="#5673CE"/>
</svg>
