<svg width="92" height="80" viewBox="0 0 92 80" fill="none" xmlns="http://www.w3.org/2000/svg">
<path d="M87.3468 30.7232H82.4415L75.074 3.40923C74.3954 0.964639 71.8555 -0.498266 69.3738 0.156192L3.45327 17.6726C0.971555 18.3655 -0.501962 20.8871 0.157243 23.3509L10.5882 62.0409C11.0729 63.831 12.6046 65.14 14.4465 65.3709V75.3803C14.4465 77.9404 16.521 80 19.0997 80H87.3468C89.9254 80 92 77.9404 92 75.3803V35.3429C92 32.7828 89.9254 30.7232 87.3468 30.7232ZM75.6944 17.6148L79.2424 30.7232H26.3897L75.6944 17.6148ZM3.16244 22.5425C2.94917 21.7148 3.43388 20.8678 4.26758 20.6561L70.1881 3.1205C70.3238 3.082 70.4595 3.06275 70.5952 3.06275C70.8667 3.06275 71.1187 3.13975 71.3514 3.25524C71.7198 3.46698 71.9718 3.7942 72.0881 4.19843L73.2902 8.66414L4.36452 27.0082L3.16244 22.5425ZM14.4465 35.3429V62.2334C14.0199 62.0409 13.7097 61.6752 13.5934 61.2325L6.76868 35.9396L14.7373 33.8223C14.5434 34.3035 14.4659 34.8232 14.4465 35.3429ZM5.97376 32.9753L5.17883 29.9918L74.1045 11.6669L74.8994 14.6505L5.97376 32.9753ZM88.8979 75.3803C88.8979 76.2272 88.1999 76.9202 87.3468 76.9202H19.0997C18.2466 76.9202 17.5486 76.2272 17.5486 75.3803V35.3429C17.5486 34.496 18.2466 33.803 19.0997 33.803H87.3468C88.1999 33.803 88.8979 34.496 88.8979 35.3429V75.3803Z" fill="#5673CE"/>
<path d="M59.6022 53.0325C61.7349 50.4147 61.3471 46.5842 58.7297 44.4476C58.0317 43.8894 57.2174 43.4852 56.3449 43.2542V41.5025C56.3449 40.6556 55.647 39.9626 54.7939 39.9626C53.9408 39.9626 53.2428 40.6556 53.2428 41.5025V43.0424H51.6917V41.5025C51.6917 40.6556 50.9938 39.9626 50.1407 39.9626C49.2876 39.9626 48.5896 40.6556 48.5896 41.5025V43.0424H43.9364C43.0833 43.0424 42.3853 43.7354 42.3853 44.5823C42.3853 45.4293 43.0833 46.1222 43.9364 46.1222H45.4875V64.601H43.9364C43.0833 64.601 42.3853 65.294 42.3853 66.1409C42.3853 66.9879 43.0833 67.6808 43.9364 67.6808H48.5896V69.2207C48.5896 70.0677 49.2876 70.7606 50.1407 70.7606C50.9938 70.7606 51.6917 70.0677 51.6917 69.2207V67.6808H53.2428V69.2207C53.2428 70.0677 53.9408 70.7606 54.7939 70.7606C55.647 70.7606 56.3449 70.0677 56.3449 69.2207V67.6808C60.6104 67.6808 64.1003 64.2546 64.1003 60.0006C64.0809 57.017 62.336 54.2837 59.6022 53.0325ZM48.5702 46.1222H54.7745C56.4807 46.1222 57.8766 47.5082 57.8766 49.202C57.8766 50.8959 56.4807 52.2818 54.7745 52.2818H48.5702V46.1222ZM56.3256 64.601H48.5702V55.3616H56.3256C58.9042 55.3616 60.9788 57.4213 60.9788 59.9813C60.9788 62.5414 58.9042 64.601 56.3256 64.601Z" fill="#5673CE"/>
<path d="M53.2233 35.3429C42.0944 35.3429 33.0594 44.3128 33.0594 55.3616C33.0594 66.4104 42.0944 75.3803 53.2233 75.3803C64.3522 75.3803 73.3872 66.4104 73.3872 55.3616C73.3872 44.3128 64.3522 35.3621 53.2233 35.3429ZM53.2233 72.3005C43.8005 72.3005 36.1615 64.7165 36.1615 55.3616C36.1615 46.0067 43.8005 38.4227 53.2233 38.4227C62.6461 38.4227 70.2851 46.0067 70.2851 55.3616C70.2851 64.7165 62.6461 72.2812 53.2233 72.3005Z" fill="#5673CE"/>
</svg>
